<svg width="233" height="49" viewBox="0 0 233 49" fill="none" xmlns="http://www.w3.org/2000/svg">
<path d="M156.678 16.3463C157.74 12.4202 161.3 9.38466 165.715 9.38466C170.531 9.38466 173.765 12.3281 174.839 16.3463H156.678ZM165.689 -0.0164389C154.905 -0.0164389 144.688 8.56883 144.688 20.4865C144.688 32.4042 153.793 40.9907 166.357 40.9907C174.839 40.9907 181.553 37.3521 184.721 33.7036L176.882 27.4501C174.379 29.6275 171.43 31.1428 166.663 31.1428C161.981 31.1428 157.73 28.7519 156.533 23.9733H186.396C186.575 22.845 186.691 21.6888 186.691 20.4865C186.691 8.92167 178.253 -0.0164389 165.689 -0.0164389ZM124.438 36.1442C130.088 30.0892 138.21 17.8038 138.21 9.08969C138.21 3.15543 135.506 0.92448 129.821 0.89461C127.661 0.882786 125.548 1.09499 123.309 1.3576C124.778 2.92331 125.729 4.66015 125.729 8.43317C125.729 17.3707 120.913 26.913 117.133 31.6886C110.463 8.65471 109.279 0.893988 94.8856 0.893988C93.1052 0.893988 91.6506 0.999779 89.6874 1.26115C98.1049 7.75299 102.249 20.0528 109.53 40.2788H115.746C110.555 43.1476 105.499 46.1303 100.931 46.1303C102.865 48.187 105.118 49.0165 107.591 49.0165C116.957 49.0165 128.966 38.1611 139.184 39.1002C136.247 36.2706 133.313 35.0589 130.248 35.0589C128.332 35.0589 126.388 35.4765 124.438 36.1442ZM28.2817 23.285L11.29 1.35822H-0.041748V39.6136H10.9923V17.5766L28.2049 39.6136H39.3151V1.35822H28.2817V23.285ZM231.797 1.35822H218.99L211.739 11.5204L204.458 1.35822H191.492L204.879 19.6987L190.212 39.6136H203.029L211.59 27.9417L220.074 39.6136H233.04L218.448 19.6253L231.797 1.35822ZM69.0258 31.1434C63.296 31.1434 58.6507 26.3722 58.6507 20.4853C58.6507 14.5995 63.296 9.82837 69.0258 9.82837C74.7556 9.82837 79.4009 14.5995 79.4009 20.4853C79.4009 26.3722 74.7556 31.1434 69.0258 31.1434ZM68.9422 -0.0170612C56.3786 -0.0170612 47.2734 8.56883 47.2734 20.4865C47.2734 32.4048 56.3786 40.9907 68.9422 40.9907C81.5058 40.9907 90.6116 32.4048 90.6116 20.4865C90.6116 8.56883 81.5058 -0.0170612 68.9422 -0.0170612Z" fill="#FEFEFE"/>
</svg>
